<mxfile host="app.diagrams.net" agent="Mozilla/5.0 (Windows NT 10.0; Win64; x64) AppleWebKit/537.36 (KHTML, like Gecko) Chrome/130.0.0.0 Safari/537.36 Edg/130.0.0.0" version="24.8.0">
  <diagram name="Page-1" id="t29LPUW4Mw0HWHMckyQy">
    <mxGraphModel dx="1235" dy="671" grid="1" gridSize="10" guides="1" tooltips="1" connect="1" arrows="1" fold="1" page="1" pageScale="1" pageWidth="827" pageHeight="1169" math="0" shadow="0">
      <root>
        <mxCell id="0" />
        <mxCell id="1" parent="0" />
        <mxCell id="XnyfyDyMrzBIbEaTg-12-14" style="edgeStyle=orthogonalEdgeStyle;rounded=0;orthogonalLoop=1;jettySize=auto;html=1;entryX=1;entryY=0.5;entryDx=0;entryDy=0;endArrow=none;endFill=0;" edge="1" parent="1" source="XnyfyDyMrzBIbEaTg-12-1" target="XnyfyDyMrzBIbEaTg-12-13">
          <mxGeometry relative="1" as="geometry" />
        </mxCell>
        <mxCell id="XnyfyDyMrzBIbEaTg-12-1" value="Vehicle" style="rounded=0;whiteSpace=wrap;html=1;" vertex="1" parent="1">
          <mxGeometry x="291" y="160" width="120" height="60" as="geometry" />
        </mxCell>
        <mxCell id="XnyfyDyMrzBIbEaTg-12-28" style="edgeStyle=orthogonalEdgeStyle;rounded=0;orthogonalLoop=1;jettySize=auto;html=1;entryX=0;entryY=0.5;entryDx=0;entryDy=0;endArrow=none;endFill=0;" edge="1" parent="1" source="XnyfyDyMrzBIbEaTg-12-2" target="XnyfyDyMrzBIbEaTg-12-26">
          <mxGeometry relative="1" as="geometry" />
        </mxCell>
        <mxCell id="XnyfyDyMrzBIbEaTg-12-2" value="Car" style="rounded=0;whiteSpace=wrap;html=1;" vertex="1" parent="1">
          <mxGeometry x="81" y="320" width="120" height="60" as="geometry" />
        </mxCell>
        <mxCell id="XnyfyDyMrzBIbEaTg-12-30" style="edgeStyle=orthogonalEdgeStyle;rounded=0;orthogonalLoop=1;jettySize=auto;html=1;entryX=0;entryY=0.5;entryDx=0;entryDy=0;endArrow=none;endFill=0;" edge="1" parent="1" source="XnyfyDyMrzBIbEaTg-12-3" target="XnyfyDyMrzBIbEaTg-12-27">
          <mxGeometry relative="1" as="geometry" />
        </mxCell>
        <mxCell id="XnyfyDyMrzBIbEaTg-12-3" value="Bus" style="rounded=0;whiteSpace=wrap;html=1;" vertex="1" parent="1">
          <mxGeometry x="501" y="320" width="120" height="60" as="geometry" />
        </mxCell>
        <mxCell id="XnyfyDyMrzBIbEaTg-12-7" style="edgeStyle=orthogonalEdgeStyle;rounded=0;orthogonalLoop=1;jettySize=auto;html=1;" edge="1" parent="1" source="XnyfyDyMrzBIbEaTg-12-4">
          <mxGeometry relative="1" as="geometry">
            <mxPoint x="351" y="160" as="targetPoint" />
          </mxGeometry>
        </mxCell>
        <mxCell id="XnyfyDyMrzBIbEaTg-12-4" value="Type" style="ellipse;whiteSpace=wrap;html=1;" vertex="1" parent="1">
          <mxGeometry x="313.5" y="40" width="75" height="50" as="geometry" />
        </mxCell>
        <mxCell id="XnyfyDyMrzBIbEaTg-12-6" style="edgeStyle=orthogonalEdgeStyle;rounded=0;orthogonalLoop=1;jettySize=auto;html=1;" edge="1" parent="1" source="XnyfyDyMrzBIbEaTg-12-5" target="XnyfyDyMrzBIbEaTg-12-1">
          <mxGeometry relative="1" as="geometry" />
        </mxCell>
        <mxCell id="XnyfyDyMrzBIbEaTg-12-5" value="Number" style="ellipse;whiteSpace=wrap;html=1;" vertex="1" parent="1">
          <mxGeometry x="461" y="80" width="75" height="50" as="geometry" />
        </mxCell>
        <mxCell id="XnyfyDyMrzBIbEaTg-12-10" style="edgeStyle=orthogonalEdgeStyle;rounded=0;orthogonalLoop=1;jettySize=auto;html=1;entryX=0;entryY=0.5;entryDx=0;entryDy=0;exitX=1;exitY=0.5;exitDx=0;exitDy=0;endArrow=none;endFill=0;" edge="1" parent="1" source="XnyfyDyMrzBIbEaTg-12-8" target="XnyfyDyMrzBIbEaTg-12-1">
          <mxGeometry relative="1" as="geometry" />
        </mxCell>
        <mxCell id="XnyfyDyMrzBIbEaTg-12-11" style="edgeStyle=orthogonalEdgeStyle;rounded=0;orthogonalLoop=1;jettySize=auto;html=1;entryX=0.5;entryY=0;entryDx=0;entryDy=0;endArrow=none;endFill=0;" edge="1" parent="1" source="XnyfyDyMrzBIbEaTg-12-8" target="XnyfyDyMrzBIbEaTg-12-2">
          <mxGeometry relative="1" as="geometry" />
        </mxCell>
        <mxCell id="XnyfyDyMrzBIbEaTg-12-8" value="Is&amp;nbsp;&lt;div&gt;A&lt;/div&gt;" style="triangle;whiteSpace=wrap;html=1;direction=north;" vertex="1" parent="1">
          <mxGeometry x="101" y="220" width="80" height="60" as="geometry" />
        </mxCell>
        <mxCell id="XnyfyDyMrzBIbEaTg-12-15" style="edgeStyle=orthogonalEdgeStyle;rounded=0;orthogonalLoop=1;jettySize=auto;html=1;endArrow=none;endFill=0;" edge="1" parent="1" source="XnyfyDyMrzBIbEaTg-12-13" target="XnyfyDyMrzBIbEaTg-12-3">
          <mxGeometry relative="1" as="geometry" />
        </mxCell>
        <mxCell id="XnyfyDyMrzBIbEaTg-12-13" value="Is&amp;nbsp;&lt;div&gt;A&lt;/div&gt;" style="triangle;whiteSpace=wrap;html=1;direction=north;" vertex="1" parent="1">
          <mxGeometry x="521" y="220" width="80" height="60" as="geometry" />
        </mxCell>
        <mxCell id="XnyfyDyMrzBIbEaTg-12-19" style="edgeStyle=orthogonalEdgeStyle;rounded=0;orthogonalLoop=1;jettySize=auto;html=1;entryX=1;entryY=0.5;entryDx=0;entryDy=0;" edge="1" parent="1" source="XnyfyDyMrzBIbEaTg-12-16" target="XnyfyDyMrzBIbEaTg-12-3">
          <mxGeometry relative="1" as="geometry" />
        </mxCell>
        <mxCell id="XnyfyDyMrzBIbEaTg-12-16" value="BusID" style="ellipse;whiteSpace=wrap;html=1;fontStyle=4" vertex="1" parent="1">
          <mxGeometry x="671" y="325" width="75" height="50" as="geometry" />
        </mxCell>
        <mxCell id="XnyfyDyMrzBIbEaTg-12-18" style="edgeStyle=orthogonalEdgeStyle;rounded=0;orthogonalLoop=1;jettySize=auto;html=1;entryX=0.5;entryY=0;entryDx=0;entryDy=0;" edge="1" parent="1" source="XnyfyDyMrzBIbEaTg-12-17" target="XnyfyDyMrzBIbEaTg-12-1">
          <mxGeometry relative="1" as="geometry" />
        </mxCell>
        <mxCell id="XnyfyDyMrzBIbEaTg-12-17" value="VehicleID" style="ellipse;whiteSpace=wrap;html=1;fontStyle=4" vertex="1" parent="1">
          <mxGeometry x="191" y="80" width="75" height="50" as="geometry" />
        </mxCell>
        <mxCell id="XnyfyDyMrzBIbEaTg-12-21" style="edgeStyle=orthogonalEdgeStyle;rounded=0;orthogonalLoop=1;jettySize=auto;html=1;" edge="1" parent="1" source="XnyfyDyMrzBIbEaTg-12-20" target="XnyfyDyMrzBIbEaTg-12-2">
          <mxGeometry relative="1" as="geometry" />
        </mxCell>
        <mxCell id="XnyfyDyMrzBIbEaTg-12-20" value="CarID" style="ellipse;whiteSpace=wrap;html=1;fontStyle=4" vertex="1" parent="1">
          <mxGeometry x="271" y="325" width="75" height="50" as="geometry" />
        </mxCell>
        <mxCell id="XnyfyDyMrzBIbEaTg-12-23" value="TaxiCar" style="rounded=0;whiteSpace=wrap;html=1;" vertex="1" parent="1">
          <mxGeometry x="81" y="540" width="120" height="60" as="geometry" />
        </mxCell>
        <mxCell id="XnyfyDyMrzBIbEaTg-12-25" value="SchoolBus" style="rounded=0;whiteSpace=wrap;html=1;" vertex="1" parent="1">
          <mxGeometry x="501" y="540" width="120" height="60" as="geometry" />
        </mxCell>
        <mxCell id="XnyfyDyMrzBIbEaTg-12-29" style="edgeStyle=orthogonalEdgeStyle;rounded=0;orthogonalLoop=1;jettySize=auto;html=1;entryX=0.5;entryY=0;entryDx=0;entryDy=0;endArrow=none;endFill=0;" edge="1" parent="1" source="XnyfyDyMrzBIbEaTg-12-26" target="XnyfyDyMrzBIbEaTg-12-23">
          <mxGeometry relative="1" as="geometry" />
        </mxCell>
        <mxCell id="XnyfyDyMrzBIbEaTg-12-26" value="Is&lt;div&gt;A&lt;/div&gt;" style="triangle;whiteSpace=wrap;html=1;direction=south;" vertex="1" parent="1">
          <mxGeometry x="101" y="430" width="80" height="60" as="geometry" />
        </mxCell>
        <mxCell id="XnyfyDyMrzBIbEaTg-12-31" style="edgeStyle=orthogonalEdgeStyle;rounded=0;orthogonalLoop=1;jettySize=auto;html=1;entryX=0.5;entryY=0;entryDx=0;entryDy=0;endArrow=none;endFill=0;" edge="1" parent="1" source="XnyfyDyMrzBIbEaTg-12-27" target="XnyfyDyMrzBIbEaTg-12-25">
          <mxGeometry relative="1" as="geometry" />
        </mxCell>
        <mxCell id="XnyfyDyMrzBIbEaTg-12-27" value="Is&lt;div&gt;A&lt;/div&gt;" style="triangle;whiteSpace=wrap;html=1;direction=south;" vertex="1" parent="1">
          <mxGeometry x="521" y="430" width="80" height="60" as="geometry" />
        </mxCell>
        <mxCell id="XnyfyDyMrzBIbEaTg-12-34" style="edgeStyle=orthogonalEdgeStyle;rounded=0;orthogonalLoop=1;jettySize=auto;html=1;" edge="1" parent="1" source="XnyfyDyMrzBIbEaTg-12-32" target="XnyfyDyMrzBIbEaTg-12-23">
          <mxGeometry relative="1" as="geometry" />
        </mxCell>
        <mxCell id="XnyfyDyMrzBIbEaTg-12-32" value="TaxiCarID" style="ellipse;whiteSpace=wrap;html=1;fontStyle=4" vertex="1" parent="1">
          <mxGeometry x="266" y="545" width="75" height="50" as="geometry" />
        </mxCell>
        <mxCell id="XnyfyDyMrzBIbEaTg-12-35" style="edgeStyle=orthogonalEdgeStyle;rounded=0;orthogonalLoop=1;jettySize=auto;html=1;entryX=1;entryY=0.5;entryDx=0;entryDy=0;" edge="1" parent="1" source="XnyfyDyMrzBIbEaTg-12-33" target="XnyfyDyMrzBIbEaTg-12-25">
          <mxGeometry relative="1" as="geometry" />
        </mxCell>
        <mxCell id="XnyfyDyMrzBIbEaTg-12-33" value="SchoolBusID" style="ellipse;whiteSpace=wrap;html=1;fontStyle=4" vertex="1" parent="1">
          <mxGeometry x="671" y="545" width="75" height="50" as="geometry" />
        </mxCell>
        <mxCell id="XnyfyDyMrzBIbEaTg-12-36" value="Vehicle" style="shape=table;startSize=30;container=1;collapsible=1;childLayout=tableLayout;fixedRows=1;rowLines=0;fontStyle=1;align=center;resizeLast=1;html=1;" vertex="1" parent="1">
          <mxGeometry x="290" y="680" width="180" height="150" as="geometry" />
        </mxCell>
        <mxCell id="XnyfyDyMrzBIbEaTg-12-37" value="" style="shape=tableRow;horizontal=0;startSize=0;swimlaneHead=0;swimlaneBody=0;fillColor=none;collapsible=0;dropTarget=0;points=[[0,0.5],[1,0.5]];portConstraint=eastwest;top=0;left=0;right=0;bottom=1;" vertex="1" parent="XnyfyDyMrzBIbEaTg-12-36">
          <mxGeometry y="30" width="180" height="30" as="geometry" />
        </mxCell>
        <mxCell id="XnyfyDyMrzBIbEaTg-12-38" value="PK" style="shape=partialRectangle;connectable=0;fillColor=none;top=0;left=0;bottom=0;right=0;fontStyle=1;overflow=hidden;whiteSpace=wrap;html=1;" vertex="1" parent="XnyfyDyMrzBIbEaTg-12-37">
          <mxGeometry width="30" height="30" as="geometry">
            <mxRectangle width="30" height="30" as="alternateBounds" />
          </mxGeometry>
        </mxCell>
        <mxCell id="XnyfyDyMrzBIbEaTg-12-39" value="VehiceID" style="shape=partialRectangle;connectable=0;fillColor=none;top=0;left=0;bottom=0;right=0;align=left;spacingLeft=6;fontStyle=5;overflow=hidden;whiteSpace=wrap;html=1;" vertex="1" parent="XnyfyDyMrzBIbEaTg-12-37">
          <mxGeometry x="30" width="150" height="30" as="geometry">
            <mxRectangle width="150" height="30" as="alternateBounds" />
          </mxGeometry>
        </mxCell>
        <mxCell id="XnyfyDyMrzBIbEaTg-12-40" value="" style="shape=tableRow;horizontal=0;startSize=0;swimlaneHead=0;swimlaneBody=0;fillColor=none;collapsible=0;dropTarget=0;points=[[0,0.5],[1,0.5]];portConstraint=eastwest;top=0;left=0;right=0;bottom=0;" vertex="1" parent="XnyfyDyMrzBIbEaTg-12-36">
          <mxGeometry y="60" width="180" height="30" as="geometry" />
        </mxCell>
        <mxCell id="XnyfyDyMrzBIbEaTg-12-41" value="" style="shape=partialRectangle;connectable=0;fillColor=none;top=0;left=0;bottom=0;right=0;editable=1;overflow=hidden;whiteSpace=wrap;html=1;" vertex="1" parent="XnyfyDyMrzBIbEaTg-12-40">
          <mxGeometry width="30" height="30" as="geometry">
            <mxRectangle width="30" height="30" as="alternateBounds" />
          </mxGeometry>
        </mxCell>
        <mxCell id="XnyfyDyMrzBIbEaTg-12-42" value="Type" style="shape=partialRectangle;connectable=0;fillColor=none;top=0;left=0;bottom=0;right=0;align=left;spacingLeft=6;overflow=hidden;whiteSpace=wrap;html=1;" vertex="1" parent="XnyfyDyMrzBIbEaTg-12-40">
          <mxGeometry x="30" width="150" height="30" as="geometry">
            <mxRectangle width="150" height="30" as="alternateBounds" />
          </mxGeometry>
        </mxCell>
        <mxCell id="XnyfyDyMrzBIbEaTg-12-43" value="" style="shape=tableRow;horizontal=0;startSize=0;swimlaneHead=0;swimlaneBody=0;fillColor=none;collapsible=0;dropTarget=0;points=[[0,0.5],[1,0.5]];portConstraint=eastwest;top=0;left=0;right=0;bottom=0;" vertex="1" parent="XnyfyDyMrzBIbEaTg-12-36">
          <mxGeometry y="90" width="180" height="30" as="geometry" />
        </mxCell>
        <mxCell id="XnyfyDyMrzBIbEaTg-12-44" value="" style="shape=partialRectangle;connectable=0;fillColor=none;top=0;left=0;bottom=0;right=0;editable=1;overflow=hidden;whiteSpace=wrap;html=1;" vertex="1" parent="XnyfyDyMrzBIbEaTg-12-43">
          <mxGeometry width="30" height="30" as="geometry">
            <mxRectangle width="30" height="30" as="alternateBounds" />
          </mxGeometry>
        </mxCell>
        <mxCell id="XnyfyDyMrzBIbEaTg-12-45" value="Number" style="shape=partialRectangle;connectable=0;fillColor=none;top=0;left=0;bottom=0;right=0;align=left;spacingLeft=6;overflow=hidden;whiteSpace=wrap;html=1;" vertex="1" parent="XnyfyDyMrzBIbEaTg-12-43">
          <mxGeometry x="30" width="150" height="30" as="geometry">
            <mxRectangle width="150" height="30" as="alternateBounds" />
          </mxGeometry>
        </mxCell>
        <mxCell id="XnyfyDyMrzBIbEaTg-12-46" value="" style="shape=tableRow;horizontal=0;startSize=0;swimlaneHead=0;swimlaneBody=0;fillColor=none;collapsible=0;dropTarget=0;points=[[0,0.5],[1,0.5]];portConstraint=eastwest;top=0;left=0;right=0;bottom=0;" vertex="1" parent="XnyfyDyMrzBIbEaTg-12-36">
          <mxGeometry y="120" width="180" height="30" as="geometry" />
        </mxCell>
        <mxCell id="XnyfyDyMrzBIbEaTg-12-47" value="" style="shape=partialRectangle;connectable=0;fillColor=none;top=0;left=0;bottom=0;right=0;editable=1;overflow=hidden;whiteSpace=wrap;html=1;" vertex="1" parent="XnyfyDyMrzBIbEaTg-12-46">
          <mxGeometry width="30" height="30" as="geometry">
            <mxRectangle width="30" height="30" as="alternateBounds" />
          </mxGeometry>
        </mxCell>
        <mxCell id="XnyfyDyMrzBIbEaTg-12-48" value="Licence&amp;nbsp;" style="shape=partialRectangle;connectable=0;fillColor=none;top=0;left=0;bottom=0;right=0;align=left;spacingLeft=6;overflow=hidden;whiteSpace=wrap;html=1;" vertex="1" parent="XnyfyDyMrzBIbEaTg-12-46">
          <mxGeometry x="30" width="150" height="30" as="geometry">
            <mxRectangle width="150" height="30" as="alternateBounds" />
          </mxGeometry>
        </mxCell>
        <mxCell id="XnyfyDyMrzBIbEaTg-12-49" value="" style="line;strokeWidth=1;rotatable=0;dashed=0;labelPosition=right;align=left;verticalAlign=middle;spacingTop=0;spacingLeft=6;points=[];portConstraint=eastwest;" vertex="1" parent="1">
          <mxGeometry y="636" width="820" height="10" as="geometry" />
        </mxCell>
        <mxCell id="XnyfyDyMrzBIbEaTg-12-51" value="Relationa Schema" style="text;strokeColor=none;fillColor=none;spacingLeft=4;spacingRight=4;overflow=hidden;rotatable=0;points=[[0,0.5],[1,0.5]];portConstraint=eastwest;fontSize=12;whiteSpace=wrap;html=1;" vertex="1" parent="1">
          <mxGeometry y="650" width="150" height="30" as="geometry" />
        </mxCell>
        <mxCell id="XnyfyDyMrzBIbEaTg-12-52" value="ER Diagram" style="text;strokeColor=none;fillColor=none;spacingLeft=4;spacingRight=4;overflow=hidden;rotatable=0;points=[[0,0.5],[1,0.5]];portConstraint=eastwest;fontSize=12;whiteSpace=wrap;html=1;" vertex="1" parent="1">
          <mxGeometry width="150" height="30" as="geometry" />
        </mxCell>
        <mxCell id="XnyfyDyMrzBIbEaTg-12-54" style="edgeStyle=orthogonalEdgeStyle;rounded=0;orthogonalLoop=1;jettySize=auto;html=1;" edge="1" parent="1" target="XnyfyDyMrzBIbEaTg-12-1">
          <mxGeometry relative="1" as="geometry">
            <mxPoint x="461" y="50" as="sourcePoint" />
            <mxPoint x="351" y="165" as="targetPoint" />
            <Array as="points">
              <mxPoint x="400" y="50" />
              <mxPoint x="400" y="105" />
              <mxPoint x="351" y="105" />
            </Array>
          </mxGeometry>
        </mxCell>
        <mxCell id="XnyfyDyMrzBIbEaTg-12-53" value="Licence" style="ellipse;whiteSpace=wrap;html=1;" vertex="1" parent="1">
          <mxGeometry x="461" y="20" width="75" height="50" as="geometry" />
        </mxCell>
        <mxCell id="XnyfyDyMrzBIbEaTg-12-55" value="Car" style="shape=table;startSize=30;container=1;collapsible=1;childLayout=tableLayout;fixedRows=1;rowLines=0;fontStyle=1;align=center;resizeLast=1;html=1;" vertex="1" parent="1">
          <mxGeometry x="81" y="870" width="180" height="90" as="geometry" />
        </mxCell>
        <mxCell id="XnyfyDyMrzBIbEaTg-12-56" value="" style="shape=tableRow;horizontal=0;startSize=0;swimlaneHead=0;swimlaneBody=0;fillColor=none;collapsible=0;dropTarget=0;points=[[0,0.5],[1,0.5]];portConstraint=eastwest;top=0;left=0;right=0;bottom=1;" vertex="1" parent="XnyfyDyMrzBIbEaTg-12-55">
          <mxGeometry y="30" width="180" height="30" as="geometry" />
        </mxCell>
        <mxCell id="XnyfyDyMrzBIbEaTg-12-57" value="PK" style="shape=partialRectangle;connectable=0;fillColor=none;top=0;left=0;bottom=0;right=0;fontStyle=1;overflow=hidden;whiteSpace=wrap;html=1;" vertex="1" parent="XnyfyDyMrzBIbEaTg-12-56">
          <mxGeometry width="30" height="30" as="geometry">
            <mxRectangle width="30" height="30" as="alternateBounds" />
          </mxGeometry>
        </mxCell>
        <mxCell id="XnyfyDyMrzBIbEaTg-12-58" value="CarID" style="shape=partialRectangle;connectable=0;fillColor=none;top=0;left=0;bottom=0;right=0;align=left;spacingLeft=6;fontStyle=5;overflow=hidden;whiteSpace=wrap;html=1;" vertex="1" parent="XnyfyDyMrzBIbEaTg-12-56">
          <mxGeometry x="30" width="150" height="30" as="geometry">
            <mxRectangle width="150" height="30" as="alternateBounds" />
          </mxGeometry>
        </mxCell>
        <mxCell id="XnyfyDyMrzBIbEaTg-12-59" value="" style="shape=tableRow;horizontal=0;startSize=0;swimlaneHead=0;swimlaneBody=0;fillColor=none;collapsible=0;dropTarget=0;points=[[0,0.5],[1,0.5]];portConstraint=eastwest;top=0;left=0;right=0;bottom=0;" vertex="1" parent="XnyfyDyMrzBIbEaTg-12-55">
          <mxGeometry y="60" width="180" height="30" as="geometry" />
        </mxCell>
        <mxCell id="XnyfyDyMrzBIbEaTg-12-60" value="Fk" style="shape=partialRectangle;connectable=0;fillColor=none;top=0;left=0;bottom=0;right=0;editable=1;overflow=hidden;whiteSpace=wrap;html=1;" vertex="1" parent="XnyfyDyMrzBIbEaTg-12-59">
          <mxGeometry width="30" height="30" as="geometry">
            <mxRectangle width="30" height="30" as="alternateBounds" />
          </mxGeometry>
        </mxCell>
        <mxCell id="XnyfyDyMrzBIbEaTg-12-61" value="VehicleID" style="shape=partialRectangle;connectable=0;fillColor=none;top=0;left=0;bottom=0;right=0;align=left;spacingLeft=6;overflow=hidden;whiteSpace=wrap;html=1;" vertex="1" parent="XnyfyDyMrzBIbEaTg-12-59">
          <mxGeometry x="30" width="150" height="30" as="geometry">
            <mxRectangle width="150" height="30" as="alternateBounds" />
          </mxGeometry>
        </mxCell>
        <mxCell id="XnyfyDyMrzBIbEaTg-12-68" value="Bus" style="shape=table;startSize=30;container=1;collapsible=1;childLayout=tableLayout;fixedRows=1;rowLines=0;fontStyle=1;align=center;resizeLast=1;html=1;" vertex="1" parent="1">
          <mxGeometry x="520" y="870" width="180" height="90" as="geometry" />
        </mxCell>
        <mxCell id="XnyfyDyMrzBIbEaTg-12-69" value="" style="shape=tableRow;horizontal=0;startSize=0;swimlaneHead=0;swimlaneBody=0;fillColor=none;collapsible=0;dropTarget=0;points=[[0,0.5],[1,0.5]];portConstraint=eastwest;top=0;left=0;right=0;bottom=1;" vertex="1" parent="XnyfyDyMrzBIbEaTg-12-68">
          <mxGeometry y="30" width="180" height="30" as="geometry" />
        </mxCell>
        <mxCell id="XnyfyDyMrzBIbEaTg-12-70" value="PK" style="shape=partialRectangle;connectable=0;fillColor=none;top=0;left=0;bottom=0;right=0;fontStyle=1;overflow=hidden;whiteSpace=wrap;html=1;" vertex="1" parent="XnyfyDyMrzBIbEaTg-12-69">
          <mxGeometry width="30" height="30" as="geometry">
            <mxRectangle width="30" height="30" as="alternateBounds" />
          </mxGeometry>
        </mxCell>
        <mxCell id="XnyfyDyMrzBIbEaTg-12-71" value="BusID" style="shape=partialRectangle;connectable=0;fillColor=none;top=0;left=0;bottom=0;right=0;align=left;spacingLeft=6;fontStyle=5;overflow=hidden;whiteSpace=wrap;html=1;" vertex="1" parent="XnyfyDyMrzBIbEaTg-12-69">
          <mxGeometry x="30" width="150" height="30" as="geometry">
            <mxRectangle width="150" height="30" as="alternateBounds" />
          </mxGeometry>
        </mxCell>
        <mxCell id="XnyfyDyMrzBIbEaTg-12-72" value="" style="shape=tableRow;horizontal=0;startSize=0;swimlaneHead=0;swimlaneBody=0;fillColor=none;collapsible=0;dropTarget=0;points=[[0,0.5],[1,0.5]];portConstraint=eastwest;top=0;left=0;right=0;bottom=0;" vertex="1" parent="XnyfyDyMrzBIbEaTg-12-68">
          <mxGeometry y="60" width="180" height="30" as="geometry" />
        </mxCell>
        <mxCell id="XnyfyDyMrzBIbEaTg-12-73" value="Fk" style="shape=partialRectangle;connectable=0;fillColor=none;top=0;left=0;bottom=0;right=0;editable=1;overflow=hidden;whiteSpace=wrap;html=1;" vertex="1" parent="XnyfyDyMrzBIbEaTg-12-72">
          <mxGeometry width="30" height="30" as="geometry">
            <mxRectangle width="30" height="30" as="alternateBounds" />
          </mxGeometry>
        </mxCell>
        <mxCell id="XnyfyDyMrzBIbEaTg-12-74" value="VehicleID" style="shape=partialRectangle;connectable=0;fillColor=none;top=0;left=0;bottom=0;right=0;align=left;spacingLeft=6;overflow=hidden;whiteSpace=wrap;html=1;" vertex="1" parent="XnyfyDyMrzBIbEaTg-12-72">
          <mxGeometry x="30" width="150" height="30" as="geometry">
            <mxRectangle width="150" height="30" as="alternateBounds" />
          </mxGeometry>
        </mxCell>
        <mxCell id="XnyfyDyMrzBIbEaTg-12-81" value="TaxiCar" style="shape=table;startSize=30;container=1;collapsible=1;childLayout=tableLayout;fixedRows=1;rowLines=0;fontStyle=1;align=center;resizeLast=1;html=1;" vertex="1" parent="1">
          <mxGeometry x="81" y="999" width="180" height="150" as="geometry" />
        </mxCell>
        <mxCell id="XnyfyDyMrzBIbEaTg-12-82" value="" style="shape=tableRow;horizontal=0;startSize=0;swimlaneHead=0;swimlaneBody=0;fillColor=none;collapsible=0;dropTarget=0;points=[[0,0.5],[1,0.5]];portConstraint=eastwest;top=0;left=0;right=0;bottom=1;" vertex="1" parent="XnyfyDyMrzBIbEaTg-12-81">
          <mxGeometry y="30" width="180" height="30" as="geometry" />
        </mxCell>
        <mxCell id="XnyfyDyMrzBIbEaTg-12-83" value="PK" style="shape=partialRectangle;connectable=0;fillColor=none;top=0;left=0;bottom=0;right=0;fontStyle=1;overflow=hidden;whiteSpace=wrap;html=1;" vertex="1" parent="XnyfyDyMrzBIbEaTg-12-82">
          <mxGeometry width="30" height="30" as="geometry">
            <mxRectangle width="30" height="30" as="alternateBounds" />
          </mxGeometry>
        </mxCell>
        <mxCell id="XnyfyDyMrzBIbEaTg-12-84" value="TaxiCarID" style="shape=partialRectangle;connectable=0;fillColor=none;top=0;left=0;bottom=0;right=0;align=left;spacingLeft=6;fontStyle=5;overflow=hidden;whiteSpace=wrap;html=1;" vertex="1" parent="XnyfyDyMrzBIbEaTg-12-82">
          <mxGeometry x="30" width="150" height="30" as="geometry">
            <mxRectangle width="150" height="30" as="alternateBounds" />
          </mxGeometry>
        </mxCell>
        <mxCell id="XnyfyDyMrzBIbEaTg-12-85" value="" style="shape=tableRow;horizontal=0;startSize=0;swimlaneHead=0;swimlaneBody=0;fillColor=none;collapsible=0;dropTarget=0;points=[[0,0.5],[1,0.5]];portConstraint=eastwest;top=0;left=0;right=0;bottom=0;" vertex="1" parent="XnyfyDyMrzBIbEaTg-12-81">
          <mxGeometry y="60" width="180" height="30" as="geometry" />
        </mxCell>
        <mxCell id="XnyfyDyMrzBIbEaTg-12-86" value="FK" style="shape=partialRectangle;connectable=0;fillColor=none;top=0;left=0;bottom=0;right=0;editable=1;overflow=hidden;whiteSpace=wrap;html=1;" vertex="1" parent="XnyfyDyMrzBIbEaTg-12-85">
          <mxGeometry width="30" height="30" as="geometry">
            <mxRectangle width="30" height="30" as="alternateBounds" />
          </mxGeometry>
        </mxCell>
        <mxCell id="XnyfyDyMrzBIbEaTg-12-87" value="CarID" style="shape=partialRectangle;connectable=0;fillColor=none;top=0;left=0;bottom=0;right=0;align=left;spacingLeft=6;overflow=hidden;whiteSpace=wrap;html=1;" vertex="1" parent="XnyfyDyMrzBIbEaTg-12-85">
          <mxGeometry x="30" width="150" height="30" as="geometry">
            <mxRectangle width="150" height="30" as="alternateBounds" />
          </mxGeometry>
        </mxCell>
        <mxCell id="XnyfyDyMrzBIbEaTg-12-88" value="" style="shape=tableRow;horizontal=0;startSize=0;swimlaneHead=0;swimlaneBody=0;fillColor=none;collapsible=0;dropTarget=0;points=[[0,0.5],[1,0.5]];portConstraint=eastwest;top=0;left=0;right=0;bottom=0;" vertex="1" parent="XnyfyDyMrzBIbEaTg-12-81">
          <mxGeometry y="90" width="180" height="30" as="geometry" />
        </mxCell>
        <mxCell id="XnyfyDyMrzBIbEaTg-12-89" value="" style="shape=partialRectangle;connectable=0;fillColor=none;top=0;left=0;bottom=0;right=0;editable=1;overflow=hidden;whiteSpace=wrap;html=1;" vertex="1" parent="XnyfyDyMrzBIbEaTg-12-88">
          <mxGeometry width="30" height="30" as="geometry">
            <mxRectangle width="30" height="30" as="alternateBounds" />
          </mxGeometry>
        </mxCell>
        <mxCell id="XnyfyDyMrzBIbEaTg-12-90" value="Row 2" style="shape=partialRectangle;connectable=0;fillColor=none;top=0;left=0;bottom=0;right=0;align=left;spacingLeft=6;overflow=hidden;whiteSpace=wrap;html=1;" vertex="1" parent="XnyfyDyMrzBIbEaTg-12-88">
          <mxGeometry x="30" width="150" height="30" as="geometry">
            <mxRectangle width="150" height="30" as="alternateBounds" />
          </mxGeometry>
        </mxCell>
        <mxCell id="XnyfyDyMrzBIbEaTg-12-91" value="" style="shape=tableRow;horizontal=0;startSize=0;swimlaneHead=0;swimlaneBody=0;fillColor=none;collapsible=0;dropTarget=0;points=[[0,0.5],[1,0.5]];portConstraint=eastwest;top=0;left=0;right=0;bottom=0;" vertex="1" parent="XnyfyDyMrzBIbEaTg-12-81">
          <mxGeometry y="120" width="180" height="30" as="geometry" />
        </mxCell>
        <mxCell id="XnyfyDyMrzBIbEaTg-12-92" value="" style="shape=partialRectangle;connectable=0;fillColor=none;top=0;left=0;bottom=0;right=0;editable=1;overflow=hidden;whiteSpace=wrap;html=1;" vertex="1" parent="XnyfyDyMrzBIbEaTg-12-91">
          <mxGeometry width="30" height="30" as="geometry">
            <mxRectangle width="30" height="30" as="alternateBounds" />
          </mxGeometry>
        </mxCell>
        <mxCell id="XnyfyDyMrzBIbEaTg-12-93" value="Row 3" style="shape=partialRectangle;connectable=0;fillColor=none;top=0;left=0;bottom=0;right=0;align=left;spacingLeft=6;overflow=hidden;whiteSpace=wrap;html=1;" vertex="1" parent="XnyfyDyMrzBIbEaTg-12-91">
          <mxGeometry x="30" width="150" height="30" as="geometry">
            <mxRectangle width="150" height="30" as="alternateBounds" />
          </mxGeometry>
        </mxCell>
        <mxCell id="XnyfyDyMrzBIbEaTg-12-94" value="SchoolBus" style="shape=table;startSize=30;container=1;collapsible=1;childLayout=tableLayout;fixedRows=1;rowLines=0;fontStyle=1;align=center;resizeLast=1;html=1;" vertex="1" parent="1">
          <mxGeometry x="521" y="990" width="180" height="150" as="geometry" />
        </mxCell>
        <mxCell id="XnyfyDyMrzBIbEaTg-12-95" value="" style="shape=tableRow;horizontal=0;startSize=0;swimlaneHead=0;swimlaneBody=0;fillColor=none;collapsible=0;dropTarget=0;points=[[0,0.5],[1,0.5]];portConstraint=eastwest;top=0;left=0;right=0;bottom=1;" vertex="1" parent="XnyfyDyMrzBIbEaTg-12-94">
          <mxGeometry y="30" width="180" height="30" as="geometry" />
        </mxCell>
        <mxCell id="XnyfyDyMrzBIbEaTg-12-96" value="PK" style="shape=partialRectangle;connectable=0;fillColor=none;top=0;left=0;bottom=0;right=0;fontStyle=1;overflow=hidden;whiteSpace=wrap;html=1;" vertex="1" parent="XnyfyDyMrzBIbEaTg-12-95">
          <mxGeometry width="30" height="30" as="geometry">
            <mxRectangle width="30" height="30" as="alternateBounds" />
          </mxGeometry>
        </mxCell>
        <mxCell id="XnyfyDyMrzBIbEaTg-12-97" value="SchoolBusID" style="shape=partialRectangle;connectable=0;fillColor=none;top=0;left=0;bottom=0;right=0;align=left;spacingLeft=6;fontStyle=5;overflow=hidden;whiteSpace=wrap;html=1;" vertex="1" parent="XnyfyDyMrzBIbEaTg-12-95">
          <mxGeometry x="30" width="150" height="30" as="geometry">
            <mxRectangle width="150" height="30" as="alternateBounds" />
          </mxGeometry>
        </mxCell>
        <mxCell id="XnyfyDyMrzBIbEaTg-12-98" value="" style="shape=tableRow;horizontal=0;startSize=0;swimlaneHead=0;swimlaneBody=0;fillColor=none;collapsible=0;dropTarget=0;points=[[0,0.5],[1,0.5]];portConstraint=eastwest;top=0;left=0;right=0;bottom=0;" vertex="1" parent="XnyfyDyMrzBIbEaTg-12-94">
          <mxGeometry y="60" width="180" height="30" as="geometry" />
        </mxCell>
        <mxCell id="XnyfyDyMrzBIbEaTg-12-99" value="FK" style="shape=partialRectangle;connectable=0;fillColor=none;top=0;left=0;bottom=0;right=0;editable=1;overflow=hidden;whiteSpace=wrap;html=1;" vertex="1" parent="XnyfyDyMrzBIbEaTg-12-98">
          <mxGeometry width="30" height="30" as="geometry">
            <mxRectangle width="30" height="30" as="alternateBounds" />
          </mxGeometry>
        </mxCell>
        <mxCell id="XnyfyDyMrzBIbEaTg-12-100" value="BusID" style="shape=partialRectangle;connectable=0;fillColor=none;top=0;left=0;bottom=0;right=0;align=left;spacingLeft=6;overflow=hidden;whiteSpace=wrap;html=1;" vertex="1" parent="XnyfyDyMrzBIbEaTg-12-98">
          <mxGeometry x="30" width="150" height="30" as="geometry">
            <mxRectangle width="150" height="30" as="alternateBounds" />
          </mxGeometry>
        </mxCell>
        <mxCell id="XnyfyDyMrzBIbEaTg-12-101" value="" style="shape=tableRow;horizontal=0;startSize=0;swimlaneHead=0;swimlaneBody=0;fillColor=none;collapsible=0;dropTarget=0;points=[[0,0.5],[1,0.5]];portConstraint=eastwest;top=0;left=0;right=0;bottom=0;" vertex="1" parent="XnyfyDyMrzBIbEaTg-12-94">
          <mxGeometry y="90" width="180" height="30" as="geometry" />
        </mxCell>
        <mxCell id="XnyfyDyMrzBIbEaTg-12-102" value="" style="shape=partialRectangle;connectable=0;fillColor=none;top=0;left=0;bottom=0;right=0;editable=1;overflow=hidden;whiteSpace=wrap;html=1;" vertex="1" parent="XnyfyDyMrzBIbEaTg-12-101">
          <mxGeometry width="30" height="30" as="geometry">
            <mxRectangle width="30" height="30" as="alternateBounds" />
          </mxGeometry>
        </mxCell>
        <mxCell id="XnyfyDyMrzBIbEaTg-12-103" value="Row 2" style="shape=partialRectangle;connectable=0;fillColor=none;top=0;left=0;bottom=0;right=0;align=left;spacingLeft=6;overflow=hidden;whiteSpace=wrap;html=1;" vertex="1" parent="XnyfyDyMrzBIbEaTg-12-101">
          <mxGeometry x="30" width="150" height="30" as="geometry">
            <mxRectangle width="150" height="30" as="alternateBounds" />
          </mxGeometry>
        </mxCell>
        <mxCell id="XnyfyDyMrzBIbEaTg-12-104" value="" style="shape=tableRow;horizontal=0;startSize=0;swimlaneHead=0;swimlaneBody=0;fillColor=none;collapsible=0;dropTarget=0;points=[[0,0.5],[1,0.5]];portConstraint=eastwest;top=0;left=0;right=0;bottom=0;" vertex="1" parent="XnyfyDyMrzBIbEaTg-12-94">
          <mxGeometry y="120" width="180" height="30" as="geometry" />
        </mxCell>
        <mxCell id="XnyfyDyMrzBIbEaTg-12-105" value="" style="shape=partialRectangle;connectable=0;fillColor=none;top=0;left=0;bottom=0;right=0;editable=1;overflow=hidden;whiteSpace=wrap;html=1;" vertex="1" parent="XnyfyDyMrzBIbEaTg-12-104">
          <mxGeometry width="30" height="30" as="geometry">
            <mxRectangle width="30" height="30" as="alternateBounds" />
          </mxGeometry>
        </mxCell>
        <mxCell id="XnyfyDyMrzBIbEaTg-12-106" value="Row 3" style="shape=partialRectangle;connectable=0;fillColor=none;top=0;left=0;bottom=0;right=0;align=left;spacingLeft=6;overflow=hidden;whiteSpace=wrap;html=1;" vertex="1" parent="XnyfyDyMrzBIbEaTg-12-104">
          <mxGeometry x="30" width="150" height="30" as="geometry">
            <mxRectangle width="150" height="30" as="alternateBounds" />
          </mxGeometry>
        </mxCell>
        <mxCell id="XnyfyDyMrzBIbEaTg-12-108" style="edgeStyle=orthogonalEdgeStyle;rounded=0;orthogonalLoop=1;jettySize=auto;html=1;entryX=0;entryY=0.5;entryDx=0;entryDy=0;endArrow=ERmandOne;endFill=0;startArrow=ERmandOne;startFill=0;curved=1;" edge="1" parent="1" source="XnyfyDyMrzBIbEaTg-12-59" target="XnyfyDyMrzBIbEaTg-12-37">
          <mxGeometry relative="1" as="geometry">
            <Array as="points">
              <mxPoint x="281" y="945" />
              <mxPoint x="281" y="835" />
              <mxPoint x="270" y="835" />
              <mxPoint x="270" y="725" />
            </Array>
          </mxGeometry>
        </mxCell>
        <mxCell id="XnyfyDyMrzBIbEaTg-12-109" style="edgeStyle=orthogonalEdgeStyle;rounded=0;orthogonalLoop=1;jettySize=auto;html=1;entryX=1;entryY=0.5;entryDx=0;entryDy=0;endArrow=ERmandOne;endFill=0;startArrow=ERmandOne;startFill=0;curved=1;" edge="1" parent="1" source="XnyfyDyMrzBIbEaTg-12-72" target="XnyfyDyMrzBIbEaTg-12-37">
          <mxGeometry relative="1" as="geometry" />
        </mxCell>
        <mxCell id="XnyfyDyMrzBIbEaTg-12-111" style="edgeStyle=orthogonalEdgeStyle;rounded=0;orthogonalLoop=1;jettySize=auto;html=1;entryX=1;entryY=0.5;entryDx=0;entryDy=0;exitX=1;exitY=0.5;exitDx=0;exitDy=0;endArrow=ERmandOne;endFill=0;startArrow=ERmandOne;startFill=0;curved=1;" edge="1" parent="1" source="XnyfyDyMrzBIbEaTg-12-98" target="XnyfyDyMrzBIbEaTg-12-69">
          <mxGeometry relative="1" as="geometry" />
        </mxCell>
        <mxCell id="XnyfyDyMrzBIbEaTg-12-112" style="edgeStyle=orthogonalEdgeStyle;rounded=0;orthogonalLoop=1;jettySize=auto;html=1;entryX=0;entryY=0.5;entryDx=0;entryDy=0;endArrow=ERmandOne;endFill=0;startArrow=ERmandOne;startFill=0;curved=1;" edge="1" parent="1" source="XnyfyDyMrzBIbEaTg-12-85" target="XnyfyDyMrzBIbEaTg-12-56">
          <mxGeometry relative="1" as="geometry" />
        </mxCell>
        <mxCell id="XnyfyDyMrzBIbEaTg-12-137" value="" style="edgeStyle=orthogonalEdgeStyle;rounded=0;orthogonalLoop=1;jettySize=auto;html=1;" edge="1" parent="1" source="XnyfyDyMrzBIbEaTg-12-115" target="XnyfyDyMrzBIbEaTg-12-136">
          <mxGeometry relative="1" as="geometry" />
        </mxCell>
        <mxCell id="XnyfyDyMrzBIbEaTg-12-115" value="1" style="childLayout=tableLayout;recursiveResize=0;strokeColor=#98bf21;fillColor=#A7C942;shadow=1;" vertex="1" parent="1">
          <mxGeometry x="256" y="1240" width="373" height="160" as="geometry" />
        </mxCell>
        <mxCell id="XnyfyDyMrzBIbEaTg-12-116" style="shape=tableRow;horizontal=0;startSize=0;swimlaneHead=0;swimlaneBody=0;top=0;left=0;bottom=0;right=0;dropTarget=0;collapsible=0;recursiveResize=0;expand=0;fontStyle=0;strokeColor=inherit;fillColor=#ffffff;" vertex="1" parent="XnyfyDyMrzBIbEaTg-12-115">
          <mxGeometry width="373" height="33" as="geometry" />
        </mxCell>
        <mxCell id="XnyfyDyMrzBIbEaTg-12-117" value="&lt;u&gt;VehicleID&lt;/u&gt;" style="connectable=0;recursiveResize=0;strokeColor=inherit;fillColor=#A7C942;align=center;fontStyle=1;fontColor=#FFFFFF;html=1;" vertex="1" parent="XnyfyDyMrzBIbEaTg-12-116">
          <mxGeometry width="93" height="33" as="geometry">
            <mxRectangle width="93" height="33" as="alternateBounds" />
          </mxGeometry>
        </mxCell>
        <mxCell id="XnyfyDyMrzBIbEaTg-12-118" value="Type" style="connectable=0;recursiveResize=0;strokeColor=inherit;fillColor=#A7C942;align=center;fontStyle=1;fontColor=#FFFFFF;html=1;" vertex="1" parent="XnyfyDyMrzBIbEaTg-12-116">
          <mxGeometry x="93" width="94" height="33" as="geometry">
            <mxRectangle width="94" height="33" as="alternateBounds" />
          </mxGeometry>
        </mxCell>
        <mxCell id="XnyfyDyMrzBIbEaTg-12-119" value="Number" style="connectable=0;recursiveResize=0;strokeColor=inherit;fillColor=#A7C942;align=center;fontStyle=1;fontColor=#FFFFFF;html=1;" vertex="1" parent="XnyfyDyMrzBIbEaTg-12-116">
          <mxGeometry x="187" width="93" height="33" as="geometry">
            <mxRectangle width="93" height="33" as="alternateBounds" />
          </mxGeometry>
        </mxCell>
        <mxCell id="XnyfyDyMrzBIbEaTg-12-140" value="Licence" style="connectable=0;recursiveResize=0;strokeColor=inherit;fillColor=#A7C942;align=center;fontStyle=1;fontColor=#FFFFFF;html=1;" vertex="1" parent="XnyfyDyMrzBIbEaTg-12-116">
          <mxGeometry x="280" width="93" height="33" as="geometry">
            <mxRectangle width="93" height="33" as="alternateBounds" />
          </mxGeometry>
        </mxCell>
        <mxCell id="XnyfyDyMrzBIbEaTg-12-120" value="" style="shape=tableRow;horizontal=0;startSize=0;swimlaneHead=0;swimlaneBody=0;top=0;left=0;bottom=0;right=0;dropTarget=0;collapsible=0;recursiveResize=0;expand=0;fontStyle=0;strokeColor=inherit;fillColor=#ffffff;" vertex="1" parent="XnyfyDyMrzBIbEaTg-12-115">
          <mxGeometry y="33" width="373" height="32" as="geometry" />
        </mxCell>
        <mxCell id="XnyfyDyMrzBIbEaTg-12-121" value="1" style="connectable=0;recursiveResize=0;strokeColor=inherit;fillColor=inherit;align=center;whiteSpace=wrap;html=1;" vertex="1" parent="XnyfyDyMrzBIbEaTg-12-120">
          <mxGeometry width="93" height="32" as="geometry">
            <mxRectangle width="93" height="32" as="alternateBounds" />
          </mxGeometry>
        </mxCell>
        <mxCell id="XnyfyDyMrzBIbEaTg-12-122" value="Value 2" style="connectable=0;recursiveResize=0;strokeColor=inherit;fillColor=inherit;align=center;whiteSpace=wrap;html=1;" vertex="1" parent="XnyfyDyMrzBIbEaTg-12-120">
          <mxGeometry x="93" width="94" height="32" as="geometry">
            <mxRectangle width="94" height="32" as="alternateBounds" />
          </mxGeometry>
        </mxCell>
        <mxCell id="XnyfyDyMrzBIbEaTg-12-123" value="Value 3" style="connectable=0;recursiveResize=0;strokeColor=inherit;fillColor=inherit;align=center;whiteSpace=wrap;html=1;" vertex="1" parent="XnyfyDyMrzBIbEaTg-12-120">
          <mxGeometry x="187" width="93" height="32" as="geometry">
            <mxRectangle width="93" height="32" as="alternateBounds" />
          </mxGeometry>
        </mxCell>
        <mxCell id="XnyfyDyMrzBIbEaTg-12-141" style="connectable=0;recursiveResize=0;strokeColor=inherit;fillColor=inherit;align=center;whiteSpace=wrap;html=1;" vertex="1" parent="XnyfyDyMrzBIbEaTg-12-120">
          <mxGeometry x="280" width="93" height="32" as="geometry">
            <mxRectangle width="93" height="32" as="alternateBounds" />
          </mxGeometry>
        </mxCell>
        <mxCell id="XnyfyDyMrzBIbEaTg-12-124" value="" style="shape=tableRow;horizontal=0;startSize=0;swimlaneHead=0;swimlaneBody=0;top=0;left=0;bottom=0;right=0;dropTarget=0;collapsible=0;recursiveResize=0;expand=0;fontStyle=1;strokeColor=inherit;fillColor=#EAF2D3;" vertex="1" parent="XnyfyDyMrzBIbEaTg-12-115">
          <mxGeometry y="65" width="373" height="31" as="geometry" />
        </mxCell>
        <mxCell id="XnyfyDyMrzBIbEaTg-12-125" value="2" style="connectable=0;recursiveResize=0;strokeColor=inherit;fillColor=inherit;whiteSpace=wrap;html=1;" vertex="1" parent="XnyfyDyMrzBIbEaTg-12-124">
          <mxGeometry width="93" height="31" as="geometry">
            <mxRectangle width="93" height="31" as="alternateBounds" />
          </mxGeometry>
        </mxCell>
        <mxCell id="XnyfyDyMrzBIbEaTg-12-126" value="Value 5" style="connectable=0;recursiveResize=0;strokeColor=inherit;fillColor=inherit;whiteSpace=wrap;html=1;" vertex="1" parent="XnyfyDyMrzBIbEaTg-12-124">
          <mxGeometry x="93" width="94" height="31" as="geometry">
            <mxRectangle width="94" height="31" as="alternateBounds" />
          </mxGeometry>
        </mxCell>
        <mxCell id="XnyfyDyMrzBIbEaTg-12-127" value="Value 6" style="connectable=0;recursiveResize=0;strokeColor=inherit;fillColor=inherit;whiteSpace=wrap;html=1;" vertex="1" parent="XnyfyDyMrzBIbEaTg-12-124">
          <mxGeometry x="187" width="93" height="31" as="geometry">
            <mxRectangle width="93" height="31" as="alternateBounds" />
          </mxGeometry>
        </mxCell>
        <mxCell id="XnyfyDyMrzBIbEaTg-12-142" style="connectable=0;recursiveResize=0;strokeColor=inherit;fillColor=inherit;whiteSpace=wrap;html=1;" vertex="1" parent="XnyfyDyMrzBIbEaTg-12-124">
          <mxGeometry x="280" width="93" height="31" as="geometry">
            <mxRectangle width="93" height="31" as="alternateBounds" />
          </mxGeometry>
        </mxCell>
        <mxCell id="XnyfyDyMrzBIbEaTg-12-128" value="" style="shape=tableRow;horizontal=0;startSize=0;swimlaneHead=0;swimlaneBody=0;top=0;left=0;bottom=0;right=0;dropTarget=0;collapsible=0;recursiveResize=0;expand=0;fontStyle=0;strokeColor=inherit;fillColor=#ffffff;" vertex="1" parent="XnyfyDyMrzBIbEaTg-12-115">
          <mxGeometry y="96" width="373" height="33" as="geometry" />
        </mxCell>
        <mxCell id="XnyfyDyMrzBIbEaTg-12-129" value="3" style="connectable=0;recursiveResize=0;strokeColor=inherit;fillColor=inherit;fontStyle=0;align=center;whiteSpace=wrap;html=1;" vertex="1" parent="XnyfyDyMrzBIbEaTg-12-128">
          <mxGeometry width="93" height="33" as="geometry">
            <mxRectangle width="93" height="33" as="alternateBounds" />
          </mxGeometry>
        </mxCell>
        <mxCell id="XnyfyDyMrzBIbEaTg-12-130" value="Value 8" style="connectable=0;recursiveResize=0;strokeColor=inherit;fillColor=inherit;fontStyle=0;align=center;whiteSpace=wrap;html=1;" vertex="1" parent="XnyfyDyMrzBIbEaTg-12-128">
          <mxGeometry x="93" width="94" height="33" as="geometry">
            <mxRectangle width="94" height="33" as="alternateBounds" />
          </mxGeometry>
        </mxCell>
        <mxCell id="XnyfyDyMrzBIbEaTg-12-131" value="Value 9" style="connectable=0;recursiveResize=0;strokeColor=inherit;fillColor=inherit;fontStyle=0;align=center;whiteSpace=wrap;html=1;" vertex="1" parent="XnyfyDyMrzBIbEaTg-12-128">
          <mxGeometry x="187" width="93" height="33" as="geometry">
            <mxRectangle width="93" height="33" as="alternateBounds" />
          </mxGeometry>
        </mxCell>
        <mxCell id="XnyfyDyMrzBIbEaTg-12-143" style="connectable=0;recursiveResize=0;strokeColor=inherit;fillColor=inherit;fontStyle=0;align=center;whiteSpace=wrap;html=1;" vertex="1" parent="XnyfyDyMrzBIbEaTg-12-128">
          <mxGeometry x="280" width="93" height="33" as="geometry">
            <mxRectangle width="93" height="33" as="alternateBounds" />
          </mxGeometry>
        </mxCell>
        <mxCell id="XnyfyDyMrzBIbEaTg-12-132" value="" style="shape=tableRow;horizontal=0;startSize=0;swimlaneHead=0;swimlaneBody=0;top=0;left=0;bottom=0;right=0;dropTarget=0;collapsible=0;recursiveResize=0;expand=0;fontStyle=1;strokeColor=inherit;fillColor=#EAF2D3;" vertex="1" parent="XnyfyDyMrzBIbEaTg-12-115">
          <mxGeometry y="129" width="373" height="31" as="geometry" />
        </mxCell>
        <mxCell id="XnyfyDyMrzBIbEaTg-12-133" value="4" style="connectable=0;recursiveResize=0;strokeColor=inherit;fillColor=inherit;whiteSpace=wrap;html=1;" vertex="1" parent="XnyfyDyMrzBIbEaTg-12-132">
          <mxGeometry width="93" height="31" as="geometry">
            <mxRectangle width="93" height="31" as="alternateBounds" />
          </mxGeometry>
        </mxCell>
        <mxCell id="XnyfyDyMrzBIbEaTg-12-134" value="Value 11" style="connectable=0;recursiveResize=0;strokeColor=inherit;fillColor=inherit;whiteSpace=wrap;html=1;" vertex="1" parent="XnyfyDyMrzBIbEaTg-12-132">
          <mxGeometry x="93" width="94" height="31" as="geometry">
            <mxRectangle width="94" height="31" as="alternateBounds" />
          </mxGeometry>
        </mxCell>
        <mxCell id="XnyfyDyMrzBIbEaTg-12-135" value="Value 12" style="connectable=0;recursiveResize=0;strokeColor=inherit;fillColor=inherit;whiteSpace=wrap;html=1;" vertex="1" parent="XnyfyDyMrzBIbEaTg-12-132">
          <mxGeometry x="187" width="93" height="31" as="geometry">
            <mxRectangle width="93" height="31" as="alternateBounds" />
          </mxGeometry>
        </mxCell>
        <mxCell id="XnyfyDyMrzBIbEaTg-12-144" style="connectable=0;recursiveResize=0;strokeColor=inherit;fillColor=inherit;whiteSpace=wrap;html=1;" vertex="1" parent="XnyfyDyMrzBIbEaTg-12-132">
          <mxGeometry x="280" width="93" height="31" as="geometry">
            <mxRectangle width="93" height="31" as="alternateBounds" />
          </mxGeometry>
        </mxCell>
        <mxCell id="XnyfyDyMrzBIbEaTg-12-136" value="Vehicles" style="whiteSpace=wrap;html=1;fillColor=#A7C942;strokeColor=#98bf21;shadow=1;" vertex="1" parent="1">
          <mxGeometry x="381" y="1180" width="120" height="60" as="geometry" />
        </mxCell>
        <mxCell id="XnyfyDyMrzBIbEaTg-12-138" value="Conceptual Tables" style="text;strokeColor=none;fillColor=none;spacingLeft=4;spacingRight=4;overflow=hidden;rotatable=0;points=[[0,0.5],[1,0.5]];portConstraint=eastwest;fontSize=12;whiteSpace=wrap;html=1;" vertex="1" parent="1">
          <mxGeometry y="1169" width="150" height="30" as="geometry" />
        </mxCell>
        <mxCell id="XnyfyDyMrzBIbEaTg-12-139" value="" style="line;strokeWidth=1;rotatable=0;dashed=0;labelPosition=right;align=left;verticalAlign=middle;spacingTop=0;spacingLeft=6;points=[];portConstraint=eastwest;" vertex="1" parent="1">
          <mxGeometry y="1164" width="820" height="10" as="geometry" />
        </mxCell>
        <mxCell id="XnyfyDyMrzBIbEaTg-12-175" value="" style="edgeStyle=orthogonalEdgeStyle;rounded=0;orthogonalLoop=1;jettySize=auto;html=1;" edge="1" parent="1" source="XnyfyDyMrzBIbEaTg-12-145" target="XnyfyDyMrzBIbEaTg-12-174">
          <mxGeometry relative="1" as="geometry" />
        </mxCell>
        <mxCell id="XnyfyDyMrzBIbEaTg-12-145" value="Assets" style="childLayout=tableLayout;recursiveResize=0;strokeColor=#98bf21;fillColor=#A7C942;shadow=1;" vertex="1" parent="1">
          <mxGeometry x="47.5" y="1530" width="187" height="96" as="geometry" />
        </mxCell>
        <mxCell id="XnyfyDyMrzBIbEaTg-12-146" style="shape=tableRow;horizontal=0;startSize=0;swimlaneHead=0;swimlaneBody=0;top=0;left=0;bottom=0;right=0;dropTarget=0;collapsible=0;recursiveResize=0;expand=0;fontStyle=0;strokeColor=inherit;fillColor=#ffffff;" vertex="1" parent="XnyfyDyMrzBIbEaTg-12-145">
          <mxGeometry width="187" height="33" as="geometry" />
        </mxCell>
        <mxCell id="XnyfyDyMrzBIbEaTg-12-147" value="&lt;u&gt;CarID&lt;/u&gt;" style="connectable=0;recursiveResize=0;strokeColor=inherit;fillColor=#A7C942;align=center;fontStyle=1;fontColor=#FFFFFF;html=1;" vertex="1" parent="XnyfyDyMrzBIbEaTg-12-146">
          <mxGeometry width="93" height="33" as="geometry">
            <mxRectangle width="93" height="33" as="alternateBounds" />
          </mxGeometry>
        </mxCell>
        <mxCell id="XnyfyDyMrzBIbEaTg-12-148" value="VehicleID (FK)" style="connectable=0;recursiveResize=0;strokeColor=inherit;fillColor=#A7C942;align=center;fontStyle=1;fontColor=#FFFFFF;html=1;" vertex="1" parent="XnyfyDyMrzBIbEaTg-12-146">
          <mxGeometry x="93" width="94" height="33" as="geometry">
            <mxRectangle width="94" height="33" as="alternateBounds" />
          </mxGeometry>
        </mxCell>
        <mxCell id="XnyfyDyMrzBIbEaTg-12-150" value="" style="shape=tableRow;horizontal=0;startSize=0;swimlaneHead=0;swimlaneBody=0;top=0;left=0;bottom=0;right=0;dropTarget=0;collapsible=0;recursiveResize=0;expand=0;fontStyle=0;strokeColor=inherit;fillColor=#ffffff;" vertex="1" parent="XnyfyDyMrzBIbEaTg-12-145">
          <mxGeometry y="33" width="187" height="32" as="geometry" />
        </mxCell>
        <mxCell id="XnyfyDyMrzBIbEaTg-12-151" value="1" style="connectable=0;recursiveResize=0;strokeColor=inherit;fillColor=inherit;align=center;whiteSpace=wrap;html=1;" vertex="1" parent="XnyfyDyMrzBIbEaTg-12-150">
          <mxGeometry width="93" height="32" as="geometry">
            <mxRectangle width="93" height="32" as="alternateBounds" />
          </mxGeometry>
        </mxCell>
        <mxCell id="XnyfyDyMrzBIbEaTg-12-152" value="2" style="connectable=0;recursiveResize=0;strokeColor=inherit;fillColor=inherit;align=center;whiteSpace=wrap;html=1;" vertex="1" parent="XnyfyDyMrzBIbEaTg-12-150">
          <mxGeometry x="93" width="94" height="32" as="geometry">
            <mxRectangle width="94" height="32" as="alternateBounds" />
          </mxGeometry>
        </mxCell>
        <mxCell id="XnyfyDyMrzBIbEaTg-12-154" value="" style="shape=tableRow;horizontal=0;startSize=0;swimlaneHead=0;swimlaneBody=0;top=0;left=0;bottom=0;right=0;dropTarget=0;collapsible=0;recursiveResize=0;expand=0;fontStyle=1;strokeColor=inherit;fillColor=#EAF2D3;" vertex="1" parent="XnyfyDyMrzBIbEaTg-12-145">
          <mxGeometry y="65" width="187" height="31" as="geometry" />
        </mxCell>
        <mxCell id="XnyfyDyMrzBIbEaTg-12-155" value="2" style="connectable=0;recursiveResize=0;strokeColor=inherit;fillColor=inherit;whiteSpace=wrap;html=1;" vertex="1" parent="XnyfyDyMrzBIbEaTg-12-154">
          <mxGeometry width="93" height="31" as="geometry">
            <mxRectangle width="93" height="31" as="alternateBounds" />
          </mxGeometry>
        </mxCell>
        <mxCell id="XnyfyDyMrzBIbEaTg-12-156" value="4" style="connectable=0;recursiveResize=0;strokeColor=inherit;fillColor=inherit;whiteSpace=wrap;html=1;" vertex="1" parent="XnyfyDyMrzBIbEaTg-12-154">
          <mxGeometry x="93" width="94" height="31" as="geometry">
            <mxRectangle width="94" height="31" as="alternateBounds" />
          </mxGeometry>
        </mxCell>
        <mxCell id="XnyfyDyMrzBIbEaTg-12-174" value="Cars" style="whiteSpace=wrap;html=1;fillColor=#A7C942;strokeColor=#98bf21;shadow=1;" vertex="1" parent="1">
          <mxGeometry x="81" y="1470" width="120" height="60" as="geometry" />
        </mxCell>
        <mxCell id="XnyfyDyMrzBIbEaTg-12-176" value="" style="edgeStyle=orthogonalEdgeStyle;rounded=0;orthogonalLoop=1;jettySize=auto;html=1;" edge="1" parent="1" source="XnyfyDyMrzBIbEaTg-12-177" target="XnyfyDyMrzBIbEaTg-12-193">
          <mxGeometry relative="1" as="geometry" />
        </mxCell>
        <mxCell id="XnyfyDyMrzBIbEaTg-12-177" value="Assets" style="childLayout=tableLayout;recursiveResize=0;strokeColor=#98bf21;fillColor=#A7C942;shadow=1;" vertex="1" parent="1">
          <mxGeometry x="559" y="1530" width="187" height="96" as="geometry" />
        </mxCell>
        <mxCell id="XnyfyDyMrzBIbEaTg-12-178" style="shape=tableRow;horizontal=0;startSize=0;swimlaneHead=0;swimlaneBody=0;top=0;left=0;bottom=0;right=0;dropTarget=0;collapsible=0;recursiveResize=0;expand=0;fontStyle=0;strokeColor=inherit;fillColor=#ffffff;" vertex="1" parent="XnyfyDyMrzBIbEaTg-12-177">
          <mxGeometry width="187" height="33" as="geometry" />
        </mxCell>
        <mxCell id="XnyfyDyMrzBIbEaTg-12-179" value="BusID" style="connectable=0;recursiveResize=0;strokeColor=inherit;fillColor=#A7C942;align=center;fontStyle=1;fontColor=#FFFFFF;html=1;" vertex="1" parent="XnyfyDyMrzBIbEaTg-12-178">
          <mxGeometry width="93" height="33" as="geometry">
            <mxRectangle width="93" height="33" as="alternateBounds" />
          </mxGeometry>
        </mxCell>
        <mxCell id="XnyfyDyMrzBIbEaTg-12-180" value="VehicleID (FK)" style="connectable=0;recursiveResize=0;strokeColor=inherit;fillColor=#A7C942;align=center;fontStyle=1;fontColor=#FFFFFF;html=1;" vertex="1" parent="XnyfyDyMrzBIbEaTg-12-178">
          <mxGeometry x="93" width="94" height="33" as="geometry">
            <mxRectangle width="94" height="33" as="alternateBounds" />
          </mxGeometry>
        </mxCell>
        <mxCell id="XnyfyDyMrzBIbEaTg-12-181" value="" style="shape=tableRow;horizontal=0;startSize=0;swimlaneHead=0;swimlaneBody=0;top=0;left=0;bottom=0;right=0;dropTarget=0;collapsible=0;recursiveResize=0;expand=0;fontStyle=0;strokeColor=inherit;fillColor=#ffffff;" vertex="1" parent="XnyfyDyMrzBIbEaTg-12-177">
          <mxGeometry y="33" width="187" height="32" as="geometry" />
        </mxCell>
        <mxCell id="XnyfyDyMrzBIbEaTg-12-182" value="1" style="connectable=0;recursiveResize=0;strokeColor=inherit;fillColor=inherit;align=center;whiteSpace=wrap;html=1;" vertex="1" parent="XnyfyDyMrzBIbEaTg-12-181">
          <mxGeometry width="93" height="32" as="geometry">
            <mxRectangle width="93" height="32" as="alternateBounds" />
          </mxGeometry>
        </mxCell>
        <mxCell id="XnyfyDyMrzBIbEaTg-12-183" value="1" style="connectable=0;recursiveResize=0;strokeColor=inherit;fillColor=inherit;align=center;whiteSpace=wrap;html=1;" vertex="1" parent="XnyfyDyMrzBIbEaTg-12-181">
          <mxGeometry x="93" width="94" height="32" as="geometry">
            <mxRectangle width="94" height="32" as="alternateBounds" />
          </mxGeometry>
        </mxCell>
        <mxCell id="XnyfyDyMrzBIbEaTg-12-184" value="" style="shape=tableRow;horizontal=0;startSize=0;swimlaneHead=0;swimlaneBody=0;top=0;left=0;bottom=0;right=0;dropTarget=0;collapsible=0;recursiveResize=0;expand=0;fontStyle=1;strokeColor=inherit;fillColor=#EAF2D3;" vertex="1" parent="XnyfyDyMrzBIbEaTg-12-177">
          <mxGeometry y="65" width="187" height="31" as="geometry" />
        </mxCell>
        <mxCell id="XnyfyDyMrzBIbEaTg-12-185" value="2" style="connectable=0;recursiveResize=0;strokeColor=inherit;fillColor=inherit;whiteSpace=wrap;html=1;" vertex="1" parent="XnyfyDyMrzBIbEaTg-12-184">
          <mxGeometry width="93" height="31" as="geometry">
            <mxRectangle width="93" height="31" as="alternateBounds" />
          </mxGeometry>
        </mxCell>
        <mxCell id="XnyfyDyMrzBIbEaTg-12-186" value="3" style="connectable=0;recursiveResize=0;strokeColor=inherit;fillColor=inherit;whiteSpace=wrap;html=1;" vertex="1" parent="XnyfyDyMrzBIbEaTg-12-184">
          <mxGeometry x="93" width="94" height="31" as="geometry">
            <mxRectangle width="94" height="31" as="alternateBounds" />
          </mxGeometry>
        </mxCell>
        <mxCell id="XnyfyDyMrzBIbEaTg-12-193" value="Buses" style="whiteSpace=wrap;html=1;fillColor=#A7C942;strokeColor=#98bf21;shadow=1;" vertex="1" parent="1">
          <mxGeometry x="592.5" y="1470" width="120" height="60" as="geometry" />
        </mxCell>
        <mxCell id="XnyfyDyMrzBIbEaTg-12-194" value="" style="edgeStyle=orthogonalEdgeStyle;rounded=0;orthogonalLoop=1;jettySize=auto;html=1;" edge="1" parent="1" source="XnyfyDyMrzBIbEaTg-12-195" target="XnyfyDyMrzBIbEaTg-12-211">
          <mxGeometry relative="1" as="geometry" />
        </mxCell>
        <mxCell id="XnyfyDyMrzBIbEaTg-12-195" value="Assets" style="childLayout=tableLayout;recursiveResize=0;strokeColor=#98bf21;fillColor=#A7C942;shadow=1;" vertex="1" parent="1">
          <mxGeometry x="47.5" y="1764" width="187" height="96" as="geometry" />
        </mxCell>
        <mxCell id="XnyfyDyMrzBIbEaTg-12-196" style="shape=tableRow;horizontal=0;startSize=0;swimlaneHead=0;swimlaneBody=0;top=0;left=0;bottom=0;right=0;dropTarget=0;collapsible=0;recursiveResize=0;expand=0;fontStyle=0;strokeColor=inherit;fillColor=#ffffff;" vertex="1" parent="XnyfyDyMrzBIbEaTg-12-195">
          <mxGeometry width="187" height="33" as="geometry" />
        </mxCell>
        <mxCell id="XnyfyDyMrzBIbEaTg-12-197" value="&lt;u&gt;TaxiCarID&lt;/u&gt;" style="connectable=0;recursiveResize=0;strokeColor=inherit;fillColor=#A7C942;align=center;fontStyle=1;fontColor=#FFFFFF;html=1;" vertex="1" parent="XnyfyDyMrzBIbEaTg-12-196">
          <mxGeometry width="93" height="33" as="geometry">
            <mxRectangle width="93" height="33" as="alternateBounds" />
          </mxGeometry>
        </mxCell>
        <mxCell id="XnyfyDyMrzBIbEaTg-12-198" value="CarID (FK)" style="connectable=0;recursiveResize=0;strokeColor=inherit;fillColor=#A7C942;align=center;fontStyle=1;fontColor=#FFFFFF;html=1;" vertex="1" parent="XnyfyDyMrzBIbEaTg-12-196">
          <mxGeometry x="93" width="94" height="33" as="geometry">
            <mxRectangle width="94" height="33" as="alternateBounds" />
          </mxGeometry>
        </mxCell>
        <mxCell id="XnyfyDyMrzBIbEaTg-12-199" value="" style="shape=tableRow;horizontal=0;startSize=0;swimlaneHead=0;swimlaneBody=0;top=0;left=0;bottom=0;right=0;dropTarget=0;collapsible=0;recursiveResize=0;expand=0;fontStyle=0;strokeColor=inherit;fillColor=#ffffff;" vertex="1" parent="XnyfyDyMrzBIbEaTg-12-195">
          <mxGeometry y="33" width="187" height="32" as="geometry" />
        </mxCell>
        <mxCell id="XnyfyDyMrzBIbEaTg-12-200" value="1" style="connectable=0;recursiveResize=0;strokeColor=inherit;fillColor=inherit;align=center;whiteSpace=wrap;html=1;" vertex="1" parent="XnyfyDyMrzBIbEaTg-12-199">
          <mxGeometry width="93" height="32" as="geometry">
            <mxRectangle width="93" height="32" as="alternateBounds" />
          </mxGeometry>
        </mxCell>
        <mxCell id="XnyfyDyMrzBIbEaTg-12-201" value="1" style="connectable=0;recursiveResize=0;strokeColor=inherit;fillColor=inherit;align=center;whiteSpace=wrap;html=1;" vertex="1" parent="XnyfyDyMrzBIbEaTg-12-199">
          <mxGeometry x="93" width="94" height="32" as="geometry">
            <mxRectangle width="94" height="32" as="alternateBounds" />
          </mxGeometry>
        </mxCell>
        <mxCell id="XnyfyDyMrzBIbEaTg-12-202" value="" style="shape=tableRow;horizontal=0;startSize=0;swimlaneHead=0;swimlaneBody=0;top=0;left=0;bottom=0;right=0;dropTarget=0;collapsible=0;recursiveResize=0;expand=0;fontStyle=1;strokeColor=inherit;fillColor=#EAF2D3;" vertex="1" parent="XnyfyDyMrzBIbEaTg-12-195">
          <mxGeometry y="65" width="187" height="31" as="geometry" />
        </mxCell>
        <mxCell id="XnyfyDyMrzBIbEaTg-12-203" value="2" style="connectable=0;recursiveResize=0;strokeColor=inherit;fillColor=inherit;whiteSpace=wrap;html=1;" vertex="1" parent="XnyfyDyMrzBIbEaTg-12-202">
          <mxGeometry width="93" height="31" as="geometry">
            <mxRectangle width="93" height="31" as="alternateBounds" />
          </mxGeometry>
        </mxCell>
        <mxCell id="XnyfyDyMrzBIbEaTg-12-204" value="2" style="connectable=0;recursiveResize=0;strokeColor=inherit;fillColor=inherit;whiteSpace=wrap;html=1;" vertex="1" parent="XnyfyDyMrzBIbEaTg-12-202">
          <mxGeometry x="93" width="94" height="31" as="geometry">
            <mxRectangle width="94" height="31" as="alternateBounds" />
          </mxGeometry>
        </mxCell>
        <mxCell id="XnyfyDyMrzBIbEaTg-12-211" value="TaxiCars" style="whiteSpace=wrap;html=1;fillColor=#A7C942;strokeColor=#98bf21;shadow=1;" vertex="1" parent="1">
          <mxGeometry x="81" y="1704" width="120" height="60" as="geometry" />
        </mxCell>
        <mxCell id="XnyfyDyMrzBIbEaTg-12-212" value="" style="edgeStyle=orthogonalEdgeStyle;rounded=0;orthogonalLoop=1;jettySize=auto;html=1;" edge="1" parent="1" source="XnyfyDyMrzBIbEaTg-12-213" target="XnyfyDyMrzBIbEaTg-12-229">
          <mxGeometry relative="1" as="geometry" />
        </mxCell>
        <mxCell id="XnyfyDyMrzBIbEaTg-12-213" value="Assets" style="childLayout=tableLayout;recursiveResize=0;strokeColor=#98bf21;fillColor=#A7C942;shadow=1;" vertex="1" parent="1">
          <mxGeometry x="559" y="1764" width="187" height="96" as="geometry" />
        </mxCell>
        <mxCell id="XnyfyDyMrzBIbEaTg-12-214" style="shape=tableRow;horizontal=0;startSize=0;swimlaneHead=0;swimlaneBody=0;top=0;left=0;bottom=0;right=0;dropTarget=0;collapsible=0;recursiveResize=0;expand=0;fontStyle=0;strokeColor=inherit;fillColor=#ffffff;" vertex="1" parent="XnyfyDyMrzBIbEaTg-12-213">
          <mxGeometry width="187" height="33" as="geometry" />
        </mxCell>
        <mxCell id="XnyfyDyMrzBIbEaTg-12-215" value="&lt;u&gt;SchoolBusID&lt;/u&gt;" style="connectable=0;recursiveResize=0;strokeColor=inherit;fillColor=#A7C942;align=center;fontStyle=1;fontColor=#FFFFFF;html=1;" vertex="1" parent="XnyfyDyMrzBIbEaTg-12-214">
          <mxGeometry width="93" height="33" as="geometry">
            <mxRectangle width="93" height="33" as="alternateBounds" />
          </mxGeometry>
        </mxCell>
        <mxCell id="XnyfyDyMrzBIbEaTg-12-216" value="BusID" style="connectable=0;recursiveResize=0;strokeColor=inherit;fillColor=#A7C942;align=center;fontStyle=1;fontColor=#FFFFFF;html=1;" vertex="1" parent="XnyfyDyMrzBIbEaTg-12-214">
          <mxGeometry x="93" width="94" height="33" as="geometry">
            <mxRectangle width="94" height="33" as="alternateBounds" />
          </mxGeometry>
        </mxCell>
        <mxCell id="XnyfyDyMrzBIbEaTg-12-217" value="" style="shape=tableRow;horizontal=0;startSize=0;swimlaneHead=0;swimlaneBody=0;top=0;left=0;bottom=0;right=0;dropTarget=0;collapsible=0;recursiveResize=0;expand=0;fontStyle=0;strokeColor=inherit;fillColor=#ffffff;" vertex="1" parent="XnyfyDyMrzBIbEaTg-12-213">
          <mxGeometry y="33" width="187" height="32" as="geometry" />
        </mxCell>
        <mxCell id="XnyfyDyMrzBIbEaTg-12-218" value="1" style="connectable=0;recursiveResize=0;strokeColor=inherit;fillColor=inherit;align=center;whiteSpace=wrap;html=1;" vertex="1" parent="XnyfyDyMrzBIbEaTg-12-217">
          <mxGeometry width="93" height="32" as="geometry">
            <mxRectangle width="93" height="32" as="alternateBounds" />
          </mxGeometry>
        </mxCell>
        <mxCell id="XnyfyDyMrzBIbEaTg-12-219" value="1" style="connectable=0;recursiveResize=0;strokeColor=inherit;fillColor=inherit;align=center;whiteSpace=wrap;html=1;" vertex="1" parent="XnyfyDyMrzBIbEaTg-12-217">
          <mxGeometry x="93" width="94" height="32" as="geometry">
            <mxRectangle width="94" height="32" as="alternateBounds" />
          </mxGeometry>
        </mxCell>
        <mxCell id="XnyfyDyMrzBIbEaTg-12-220" value="" style="shape=tableRow;horizontal=0;startSize=0;swimlaneHead=0;swimlaneBody=0;top=0;left=0;bottom=0;right=0;dropTarget=0;collapsible=0;recursiveResize=0;expand=0;fontStyle=1;strokeColor=inherit;fillColor=#EAF2D3;" vertex="1" parent="XnyfyDyMrzBIbEaTg-12-213">
          <mxGeometry y="65" width="187" height="31" as="geometry" />
        </mxCell>
        <mxCell id="XnyfyDyMrzBIbEaTg-12-221" value="2" style="connectable=0;recursiveResize=0;strokeColor=inherit;fillColor=inherit;whiteSpace=wrap;html=1;" vertex="1" parent="XnyfyDyMrzBIbEaTg-12-220">
          <mxGeometry width="93" height="31" as="geometry">
            <mxRectangle width="93" height="31" as="alternateBounds" />
          </mxGeometry>
        </mxCell>
        <mxCell id="XnyfyDyMrzBIbEaTg-12-222" value="2" style="connectable=0;recursiveResize=0;strokeColor=inherit;fillColor=inherit;whiteSpace=wrap;html=1;" vertex="1" parent="XnyfyDyMrzBIbEaTg-12-220">
          <mxGeometry x="93" width="94" height="31" as="geometry">
            <mxRectangle width="94" height="31" as="alternateBounds" />
          </mxGeometry>
        </mxCell>
        <mxCell id="XnyfyDyMrzBIbEaTg-12-229" value="SchoolBuses" style="whiteSpace=wrap;html=1;fillColor=#A7C942;strokeColor=#98bf21;shadow=1;" vertex="1" parent="1">
          <mxGeometry x="592.5" y="1704" width="120" height="60" as="geometry" />
        </mxCell>
        <mxCell id="XnyfyDyMrzBIbEaTg-12-231" style="edgeStyle=orthogonalEdgeStyle;rounded=0;orthogonalLoop=1;jettySize=auto;html=1;entryX=0;entryY=0.5;entryDx=0;entryDy=0;curved=1;" edge="1" parent="1" source="XnyfyDyMrzBIbEaTg-12-150" target="XnyfyDyMrzBIbEaTg-12-124">
          <mxGeometry relative="1" as="geometry">
            <Array as="points">
              <mxPoint x="280" y="1579" />
              <mxPoint x="280" y="1450" />
              <mxPoint x="190" y="1450" />
              <mxPoint x="190" y="1321" />
            </Array>
          </mxGeometry>
        </mxCell>
        <mxCell id="XnyfyDyMrzBIbEaTg-12-232" style="edgeStyle=orthogonalEdgeStyle;rounded=0;orthogonalLoop=1;jettySize=auto;html=1;entryX=1;entryY=0.5;entryDx=0;entryDy=0;exitX=1;exitY=0.5;exitDx=0;exitDy=0;curved=1;" edge="1" parent="1" source="XnyfyDyMrzBIbEaTg-12-181" target="XnyfyDyMrzBIbEaTg-12-120">
          <mxGeometry relative="1" as="geometry" />
        </mxCell>
        <mxCell id="XnyfyDyMrzBIbEaTg-12-233" style="edgeStyle=orthogonalEdgeStyle;rounded=0;orthogonalLoop=1;jettySize=auto;html=1;entryX=1;entryY=0.5;entryDx=0;entryDy=0;exitX=1;exitY=0.5;exitDx=0;exitDy=0;curved=1;" edge="1" parent="1" source="XnyfyDyMrzBIbEaTg-12-184" target="XnyfyDyMrzBIbEaTg-12-128">
          <mxGeometry relative="1" as="geometry" />
        </mxCell>
        <mxCell id="XnyfyDyMrzBIbEaTg-12-234" style="edgeStyle=orthogonalEdgeStyle;rounded=0;orthogonalLoop=1;jettySize=auto;html=1;entryX=0;entryY=0.75;entryDx=0;entryDy=0;curved=1;" edge="1" parent="1" source="XnyfyDyMrzBIbEaTg-12-154" target="XnyfyDyMrzBIbEaTg-12-132">
          <mxGeometry relative="1" as="geometry">
            <Array as="points">
              <mxPoint x="300" y="1611" />
              <mxPoint x="300" y="1500" />
              <mxPoint x="210" y="1500" />
              <mxPoint x="210" y="1392" />
            </Array>
          </mxGeometry>
        </mxCell>
        <mxCell id="XnyfyDyMrzBIbEaTg-12-235" style="edgeStyle=orthogonalEdgeStyle;rounded=0;orthogonalLoop=1;jettySize=auto;html=1;entryX=0;entryY=0.5;entryDx=0;entryDy=0;exitX=1;exitY=0.5;exitDx=0;exitDy=0;curved=1;" edge="1" parent="1" source="XnyfyDyMrzBIbEaTg-12-199" target="XnyfyDyMrzBIbEaTg-12-150">
          <mxGeometry relative="1" as="geometry" />
        </mxCell>
        <mxCell id="XnyfyDyMrzBIbEaTg-12-236" style="edgeStyle=orthogonalEdgeStyle;rounded=0;orthogonalLoop=1;jettySize=auto;html=1;entryX=0;entryY=0.5;entryDx=0;entryDy=0;exitX=1;exitY=0.5;exitDx=0;exitDy=0;curved=1;" edge="1" parent="1" source="XnyfyDyMrzBIbEaTg-12-202" target="XnyfyDyMrzBIbEaTg-12-154">
          <mxGeometry relative="1" as="geometry">
            <Array as="points">
              <mxPoint x="280" y="1845" />
              <mxPoint x="280" y="1680" />
              <mxPoint x="28" y="1680" />
              <mxPoint x="28" y="1611" />
            </Array>
          </mxGeometry>
        </mxCell>
        <mxCell id="XnyfyDyMrzBIbEaTg-12-237" style="edgeStyle=orthogonalEdgeStyle;rounded=0;orthogonalLoop=1;jettySize=auto;html=1;entryX=0;entryY=0.75;entryDx=0;entryDy=0;exitX=1;exitY=0.5;exitDx=0;exitDy=0;curved=1;" edge="1" parent="1" source="XnyfyDyMrzBIbEaTg-12-217" target="XnyfyDyMrzBIbEaTg-12-181">
          <mxGeometry relative="1" as="geometry" />
        </mxCell>
        <mxCell id="XnyfyDyMrzBIbEaTg-12-238" style="edgeStyle=orthogonalEdgeStyle;rounded=0;orthogonalLoop=1;jettySize=auto;html=1;entryX=0;entryY=0.75;entryDx=0;entryDy=0;exitX=1;exitY=0.5;exitDx=0;exitDy=0;curved=1;" edge="1" parent="1" source="XnyfyDyMrzBIbEaTg-12-220" target="XnyfyDyMrzBIbEaTg-12-184">
          <mxGeometry relative="1" as="geometry">
            <Array as="points">
              <mxPoint x="790" y="1845" />
              <mxPoint x="790" y="1680" />
              <mxPoint x="520" y="1680" />
              <mxPoint x="520" y="1618" />
            </Array>
          </mxGeometry>
        </mxCell>
      </root>
    </mxGraphModel>
  </diagram>
</mxfile>
